<?xml version="1.0" encoding="utf-8"?>
<!-- Generator: Adobe Illustrator 27.5.0, SVG Export Plug-In . SVG Version: 6.00 Build 0)  -->
<svg version="1.1" xmlns="http://www.w3.org/2000/svg" xmlns:xlink="http://www.w3.org/1999/xlink" x="0px" y="0px"
	 viewBox="0 0 500 500" style="enable-background:new 0 0 500 500;" xml:space="preserve">
<g id="BACKGROUND">
	<g>
		<defs>
			<path id="SVGID_1_" d="M45.049,180.735c1.146-26.965,8.816-53.041,25.866-77.04c64.121-90.256,224.839-87.97,313.772-37.153
				c26.703,15.259,49.675,38.655,58.876,67.591c7.432,23.372,5.514,48.401,5.38,72.849c-0.15,27.564,5.748,48.008,17.063,72.744
				c9.056,19.798,10.959,43.331,7.294,64.492c-7.952,45.915-42.162,83.074-83.214,104.147
				c-65.246,33.493-168.77,33.903-248.366,14.609c-40.228-9.751-78.647-29.488-98.182-57.254
				c-15.544-22.092-17.951-47.359-12.988-70.627c3.99-18.708,13.427-35.426,21.315-53.068c6.324-14.141,3.648-26.434-0.136-41.807
				C46.807,220.224,44.219,200.247,45.049,180.735z"/>
		</defs>
		<clipPath id="SVGID_00000160903042165990110340000018104203444917365637_">
			<use xlink:href="#SVGID_1_"  style="overflow:visible;"/>
		</clipPath>
		<g style="clip-path:url(#SVGID_00000160903042165990110340000018104203444917365637_);">
			<g>
				<g>
					<rect x="-0.527" y="-3.787" style="fill:#F2D1C8;" width="507.408" height="507.408"/>
					<path style="opacity:0.46;fill:#E8BBB1;" d="M241.428-3.758c0,0,80.013,122.147-59.946,168.417S-0.527,367.758-0.527,367.758
						V-3.787L241.428-3.758z"/>
					<path style="opacity:0.46;fill:#E8BBB1;" d="M354.38,503.62c0,0-88.191-121.893,38.343-168.046
						C477.91,302.43,506.88,150.841,506.88,150.841V503.62H354.38z"/>
					<path style="opacity:0.46;fill:#E8BBB1;" d="M204.588,503.62c0,0-12.241-201.603-130.89-135.034
						C37.5,389.908,41.886,473.175-0.527,444.613c0,59.007,0,59.007,0,59.007H204.588z"/>
				</g>
				
					<ellipse transform="matrix(0.6432 -0.7657 0.7657 0.6432 51.7225 301.4927)" style="opacity:0.3;fill:#FFFFFF;" cx="349.378" cy="95.246" rx="23.018" ry="23.018"/>
			</g>
			
				<ellipse transform="matrix(0.3874 -0.9219 0.9219 0.3874 81.7409 475.0514)" style="opacity:0.3;fill:#FFFFFF;" cx="398.314" cy="176.021" rx="19.893" ry="19.893"/>
			
				<ellipse transform="matrix(0.7071 -0.7071 0.7071 0.7071 -80.8208 104.7308)" style="opacity:0.3;fill:#FFFFFF;" cx="86.011" cy="149.925" rx="9.552" ry="9.552"/>
			<g>
				<rect x="69.112" y="371.564" style="fill:#EFEEE4;" width="363.568" height="128.436"/>
				<rect x="69.112" y="371.564" style="fill:#D3D1C5;" width="363.568" height="10.321"/>
				<rect x="69.112" y="371.564" style="fill:#D3D1C5;" width="75.137" height="128.407"/>
			</g>
		</g>
	</g>
</g>
<g id="OBJECTS">
	<g>
		<path style="fill:#AAA796;" d="M290.217,275.766c0,0-14.102-6.141-23.35-22.434c-9.248-16.294-8.207-68.071-8.207-68.071
			l24.941,21.618L290.217,275.766z"/>
		<path style="fill:#723328;" d="M195.142,163.773l-38.807,12.385v180.99h116.257c0,0-3.633-136.403-10.569-170.091
			c-27.413-14.862-43.183-18.165-43.183-18.165L195.142,163.773z"/>
		<path style="fill:#8C564F;" d="M242.766,91.623c0,0,11.77,8.964,14.853,26.548c3.083,17.584,2.202,23.749,8.807,33.877
			s49.321,72.887,49.321,72.887s-3.523,24.434-38.312,21.792c-23.78-78.826-28.404-92.036-32.257-100.844
			C241.326,137.076,240.684,101.657,242.766,91.623z"/>
		<path style="fill:#D8D5C3;" d="M157.138,171.243c0,0-37.793,3.041-55.372,96.333C159.858,203.13,157.138,171.243,157.138,171.243z
			"/>
		<path style="fill:#723328;" d="M144.248,177.128c2.517,1.799,6.283,5.169,9.666,10.9c3.696-11.204,3.223-16.785,3.223-16.785
			S151.821,171.671,144.248,177.128z"/>
		<path style="opacity:0.33;fill:#312A2E;" d="M249.184,156.179c1.931-7.062,0.781-23.83,1.169-29.303
			c0.44-6.202-0.66-11.819-3.839-20.349c1.005-1.705,0.84-7.653,0.84-7.653l-5.173-3.081c-1.316,13.337-0.433,42.25,2.997,50.09
			C246.298,148.441,247.484,151.376,249.184,156.179z"/>
		<polygon style="fill:#381612;" points="238.243,93.259 233.833,101.846 200.99,137.297 184.661,121.044 185.574,93.259 
			205.717,77.626 230.096,82.69 		"/>
		<path style="fill:#924D3E;" d="M230.984,257.736c8.774-39.631,9.956-69.093,10.018-80.983
			c-14.283-6.206-22.161-7.861-22.161-7.861l-23.698-5.119l-12.357,3.944C187.296,183.925,203.175,234.603,230.984,257.736z"/>
		<path style="fill:none;stroke:#56221C;stroke-miterlimit:10;" d="M182.785,167.716c4.511,16.208,20.39,66.887,48.199,90.019
			c8.774-39.631,9.956-69.093,10.018-80.983"/>
		<path style="fill:none;stroke:#56221C;stroke-miterlimit:10;" d="M218.84,168.892"/>
		<path style="fill:#EFEEE4;" d="M195.142,163.773l-3.951,1.261c3.785,12.825,14.938,46.271,35.657,75.198
			c7.802-36.406,7.336-58.039,6.614-66.583c-9.488-3.678-14.622-4.756-14.622-4.756L195.142,163.773z"/>
		<path style="fill:#D8D5C3;" d="M195.142,163.773l-3.951,1.261c2.13,7.218,6.594,20.966,13.783,36.765l15.269-18.209
			l-14.883-17.609L195.142,163.773z"/>
		<path style="fill:#D8D5C3;" d="M226.847,171.243l-6.604,12.346l13.339,9.112c0.466-8.985,0.199-15.29-0.119-19.054
			C230.942,172.671,228.739,171.882,226.847,171.243z"/>
		<path style="fill:#D66562;" d="M226.848,240.231c1.777-8.293,3.122-15.811,4.135-22.591l-5.579-18.363
			c0,0,1.461-3.594,2.36-10.549c-7.522-5.139-7.522-5.139-7.522-5.139l-6.753,8.053c0,0,3.452,5.653,5.35,8.626
			c-1.01,11.461-1.685,19.118-2.137,24.255C219.793,229.808,223.167,235.091,226.848,240.231z"/>
		<polygon style="fill:#8C564F;" points="223.711,159.975 226.848,171.242 220.243,183.589 195.142,163.773 197.289,116.609 
			214.133,131.901 		"/>
		<path style="fill:#0C0404;" d="M226.848,171.242l-3.137-11.267l-2.091-6.129l-16.735-6.091c0,0,5.448,16.785,20.335,26.53
			L226.848,171.242z"/>
		<g>
			<circle style="fill:#381612;" cx="239.318" cy="98.874" r="8.037"/>
			<circle style="fill:#381612;" cx="235.792" cy="87.641" r="8.037"/>
			<circle style="fill:#381612;" cx="225.883" cy="80.48" r="8.037"/>
			<circle style="fill:#381612;" cx="199.622" cy="80.48" r="8.037"/>
			<circle style="fill:#381612;" cx="189.857" cy="87.074" r="8.037"/>
			<circle style="fill:#381612;" cx="181.821" cy="96.554" r="8.037"/>
			<circle style="fill:#381612;" cx="181.38" cy="106.526" r="8.037"/>
			<circle style="fill:#381612;" cx="181.821" cy="117.402" r="8.037"/>
			<circle style="fill:#381612;" cx="184.661" cy="129.081" r="8.037"/>
			
				<ellipse transform="matrix(0.1606 -0.987 0.987 0.1606 29.3581 304.3456)" style="fill:#381612;" cx="193.611" cy="134.912" rx="8.037" ry="8.037"/>
			<circle style="fill:#381612;" cx="212.592" cy="78.139" r="8.935"/>
		</g>
		<path style="opacity:0.31;fill:#EFEEE4;" d="M247.354,98.874c0-3.202-1.878-5.959-4.588-7.251
			c0.672-1.175,1.062-2.532,1.062-3.982c0-4.438-3.598-8.037-8.037-8.037c-0.657,0-1.293,0.088-1.904,0.236
			c-0.327-4.138-3.782-7.396-8.004-7.396c-1.986,0-3.8,0.724-5.203,1.918c0-0.001-0.001-0.001-0.001-0.002
			c-3.471,5.981-0.436,10.312-0.436,10.312s-6.44-1.101-8.12,3.845c-1.68,4.946,1.915,10.326,1.915,10.326l13.727,9.553l4.797-5.178
			c1.43,2.22,3.918,3.693,6.755,3.693C243.756,106.91,247.354,103.312,247.354,98.874z"/>
		<path style="fill:#8C564F;" d="M237.448,96.438c0,0,9.848,11.315,9.219,23.258c-0.629,11.943,1.257,24.306,1.257,30.801
			c0,6.495,2.514,22.21-9.219,20.324c-11.734-1.886-33.944-12.781-37.715-33.525c-2.933-16.134,2.724-25.982,4.819-30.382
			C207.905,102.515,219.219,90.991,237.448,96.438z"/>
		<ellipse style="fill:#EFEEE4;" cx="222.991" cy="123.615" rx="6.6" ry="4.044"/>
		<path style="fill:#381612;" d="M229.591,123.615c0-0.738-0.327-1.427-0.891-2.022c-0.793-0.628-1.803-1.021-2.92-1.021
			c-2.519,0-4.561,1.923-4.561,4.294c0,1.063,0.425,2.022,1.104,2.772c0.219,0.013,0.442,0.021,0.667,0.021
			C226.636,127.659,229.591,125.848,229.591,123.615z"/>
		<path style="fill:#EFEEE4;" d="M245.839,123.615c0,2.063-2.23,3.735-4.981,3.735c-2.751,0-4.981-1.672-4.981-3.735
			c0-2.063,2.23-3.735,4.981-3.735C243.609,119.879,245.839,121.552,245.839,123.615z"/>
		<path style="fill:#381612;" d="M245.839,123.615c0-0.681-0.247-1.318-0.672-1.868c-0.598-0.58-1.361-0.943-2.204-0.943
			c-1.901,0-3.442,1.776-3.442,3.967c0,0.981,0.321,1.868,0.833,2.561c0.166,0.012,0.334,0.019,0.504,0.019
			C243.609,127.35,245.839,125.678,245.839,123.615z"/>
		<path style="fill:#381612;" d="M247.925,150.497c0-3.466-0.536-8.61-0.941-14.463l-0.002-0.002l-1.886,7.131
			c0,0-2.925-3.586-9.219-3.566c-9.744,0.032-13.094,4.737-13.094,4.737s-20.247-9.558-21.183-26.934
			c-1.363,5.071-2.108,11.66-0.61,19.895c3.771,20.744,25.982,31.639,37.715,33.525
			C250.439,172.708,247.925,156.993,247.925,150.497z"/>
		<path style="fill:#381612;" d="M224.454,111.949c-2.159,1.784-5.465,4.133-9.77,6.067c-0.725,0.326-1.582,0.122-2.105-0.476l0,0
			c-0.699-0.798-0.581-2.018,0.265-2.658c1.961-1.485,5.264-4.214,7.107-7.005c0.934-1.414,2.856-1.77,4.258-0.818l0,0
			C225.895,108.204,226.026,110.651,224.454,111.949z"/>
		<path style="fill:#381612;" d="M246.514,115.78c-0.402-3.264-1.443-6.385-2.688-9.132c-0.835-0.227-1.761-0.113-2.533,0.412
			c-1.687,1.145-1.817,3.591-0.245,4.89C242.419,113.082,244.256,114.442,246.514,115.78z"/>
		<circle style="fill:#8C564F;" cx="192.698" cy="129.081" r="8.95"/>
		<path style="fill:#5B3331;" d="M187.017,124.042c-0.629,0-1.243,0.066-1.835,0.19c-0.904,1.398-1.434,3.06-1.434,4.849
			c0,4.943,4.007,8.95,8.95,8.95c0.629,0,1.243-0.066,1.835-0.19c0.904-1.398,1.434-3.06,1.434-4.849
			C195.967,128.049,191.96,124.042,187.017,124.042z"/>
		<path style="fill:none;stroke:#381612;stroke-width:0.9703;stroke-linecap:round;stroke-miterlimit:10;" d="M216.391,123.615
			c0-2.233,2.955-4.044,6.6-4.044c3.645,0,6.6,1.811,6.6,4.044"/>
		<path style="fill:none;stroke:#381612;stroke-width:0.8963;stroke-linecap:round;stroke-miterlimit:10;" d="M235.877,123.615
			c0-2.063,2.23-3.735,4.981-3.735c2.751,0,4.981,1.672,4.981,3.735"/>
		<path style="opacity:0.54;fill:#312A2E;" d="M205.809,106.915c-1.198,2.517-3.557,6.824-4.812,13.061l-2.754-2.5
			c-0.367,0.558-0.723,1.102-1.068,1.632l-1.412,31.018c1.048-0.68,2.391-1.601,3.859-2.731c3.366-2.59,7.537-13.443,7.575-19.737
			s1.458-14.656,3.035-19.572c1.252-3.904,0.517-5.956,0.161-6.638C208.015,103.476,206.463,105.542,205.809,106.915z"/>
		<path style="fill:#8C564F;" d="M235.877,120.131c0,0,4.714,12.975,3.667,18.319c-1.886,2.305-9.953,0.524-9.953,0.524
			S229.067,126.013,235.877,120.131z"/>
		<path style="fill:none;stroke:#381612;stroke-width:0.75;stroke-linecap:round;stroke-miterlimit:10;" d="M236.358,121.521
			c0,0,4.233,11.585,3.185,16.929c-1.886,2.305-9.953,0.524-9.953,0.524"/>
		<path style="fill:#381612;" d="M234.639,137.297c0,0.405-0.755,0.733-1.686,0.733s-1.686-0.328-1.686-0.733
			c0-0.405,0.755-0.733,1.686-0.733S234.639,136.892,234.639,137.297z"/>
		<path style="fill:#8C564F;" d="M195.748,147.864c0,0,8.807-8.147,9.248-19.596c0.44-11.449,2.642-18.495,4.624-22.459
			c1.982-3.963-0.22-8.147-2.422-7.706c1.982-3.743,0.22-5.945-3.523-4.844c-1.982-3.083-6.605-3.743-9.468-1.101
			c-3.523-1.761-10.569,3.743-13.651,8.587c-3.083,4.844-5.064,17.835-6.385,26.642s-6.605,23.56-15.633,39.633
			c-9.027,16.073-33.688,62.752-33.688,62.752s-2.202,33.908,40.073,23.339C195.748,147.864,195.748,147.864,195.748,147.864z"/>
		<path style="fill:none;stroke:#56221C;stroke-miterlimit:10;" d="M194.206,92.158c0,0-9.027,5.945-9.908,13.651"/>
		<path style="opacity:0.33;fill:#312A2E;" d="M162.989,158.604c-1.367,2.747-2.847,5.559-4.452,8.416
			c-9.027,16.073-33.688,62.752-33.688,62.752s-2.202,33.908,40.073,23.339c0.513-1.751,1.016-3.468,1.512-5.161
			c-5.091-2.977-28.946-18.34-20.668-40.417c9.248-24.66,14.676-34.702,14.676-34.702s3.645,1.753,7.669-1.589
			c6.641,2.628,15.062,3.831,19.688,3.759c0.866-2.956,1.637-5.591,2.325-7.938L162.989,158.604z"/>
		<path style="fill:none;stroke:#56221C;stroke-miterlimit:10;" d="M203.674,93.259c0,0-8.367,5.064-10.128,13.872"/>
		<path style="opacity:0.33;fill:#312A2E;" d="M272.109,341.151c-127.702,18.513-110.102-78.571-110.102-78.571l-5.672,4.612v89.956
			h116.257C272.592,357.148,272.429,351.056,272.109,341.151z"/>
		<path style="fill:none;stroke:#56221C;stroke-miterlimit:10;" d="M207.197,98.103c0,0-4.624,5.945-6.605,12.771"/>
		<path style="fill:#D66562;" d="M170.647,154.47c0,0,7.927,8.733,23.56,5.357c-2.862,9.835-2.862,9.835-2.862,9.835
			s-15.853,2.862-24.881-5.284C169.106,158.653,170.647,154.47,170.647,154.47z"/>
		<g>
			<path style="fill:#B74949;" d="M165.411,147.395l-1.721,3.877c-1.334,1.242-2.557,2.945-3.46,4.979
				c-0.903,2.034-1.346,4.084-1.372,5.906l-1.721,3.878l4.07,1.806l0.015-0.034c0.125,0.075,0.25,0.152,0.385,0.212
				c3.045,1.351,7.365-1.726,9.65-6.873c2.285-5.148,1.668-10.416-1.377-11.767c-0.135-0.06-0.275-0.101-0.415-0.143l0.015-0.034
				L165.411,147.395z"/>
			<path style="fill:#EFEEE4;" d="M165.411,147.395c3.045,1.352,3.661,6.62,1.377,11.767c-2.285,5.147-6.605,8.225-9.65,6.873
				c-3.045-1.352-3.661-6.62-1.377-11.768C158.046,149.121,162.366,146.044,165.411,147.395z"/>
			<polyline style="fill:none;stroke:#723328;stroke-width:0.6523;stroke-miterlimit:10;" points="156.174,157.32 160.844,156.092 
				162.007,163.562 			"/>
		</g>
		<path style="fill:#EFEEE4;" d="M127.387,224.977c0,0-6.281-1.149-10.685,8.539c-4.404,9.688-25.101,46.238-15.853,61.211
			c9.248,14.973,33.028,29.505,48.44,3.523s21.813-40.134,17.512-51.553c-1.879,6.415-1.879,6.415-1.879,6.415
			S126.621,254.309,127.387,224.977z"/>
		<path style="fill:#D8D5C3;" d="M147.528,264.341c-21.578-4.404-30.826-30.826-30.826-30.826
			c-1.202,2.645-3.621,7.301-6.312,12.965C133.408,281.184,168.472,268.616,147.528,264.341z"/>
		<path style="fill:#EFEEE4;" d="M235.118,148.977c1.777,0,3.518,0.175,5.212,0.51c1.498,0.296,2.375-1.903,1.177-2.973
			c-1.762-1.573-3.979-2.511-6.388-2.511c-2.409,0-4.626,0.938-6.388,2.511c-1.198,1.07-0.321,3.269,1.177,2.973
			C231.6,149.152,233.341,148.977,235.118,148.977z"/>
		<path style="fill:#D66562;" d="M242.035,148.086c-5.404-2.553-11.363-0.96-13.852-0.074c0.1,0.876,0.791,1.66,1.723,1.476
			c1.693-0.335,3.434-0.51,5.212-0.51c1.777,0,3.518,0.175,5.212,0.51C241.235,149.666,241.905,148.93,242.035,148.086z"/>
		<path style="fill:#EFEEE4;" d="M229.068,98.49c0,0-4.995,8.918,0,8.918C234.064,107.407,229.068,98.49,229.068,98.49z"/>
		<path style="fill:#B24242;" d="M228.183,148.011c0.1,0.876,0.791,1.66,1.723,1.476c1.693-0.335,3.434-0.51,5.212-0.51
			c1.249,0,2.48,0.091,3.689,0.259c-0.6-1.05-1.438-1.874-2.376-2.503C232.947,146.551,229.816,147.43,228.183,148.011z"/>
		<g>
			<path style="fill:#56221C;" d="M228.665,127.659c-0.599,0.902-1.452,1.617-2.371,2.194c-0.923,0.582-1.941,1.009-2.994,1.302
				c-1.061,0.251-2.146,0.433-3.233,0.388c-1.084-0.004-2.158-0.189-3.182-0.506c1.076-0.096,2.114-0.133,3.14-0.273
				c1.027-0.112,2.029-0.325,3.016-0.574c0.988-0.255,1.944-0.611,2.885-1.021C226.863,128.745,227.778,128.26,228.665,127.659z"/>
		</g>
		<g>
			<path style="fill:#56221C;" d="M239.696,129.081c1.004-0.036,1.882,0.091,2.773,0.212c0.889,0.154,1.748,0.277,2.71,0.588
				c-0.894,0.482-1.91,0.538-2.861,0.4C241.37,130.119,240.43,129.787,239.696,129.081z"/>
		</g>
		<path style="fill:#D8D5C3;" d="M119.785,274.91c-14.092-6.165-0.881,9.688,14.972,11.89c8.853,1.23,16.314,0.674,21.178-0.057
			c1.671-2.999,3.171-5.809,4.507-8.459C160.413,278.288,133.869,281.072,119.785,274.91z"/>
		<path style="opacity:0.31;fill:#EFEEE4;" d="M247.924,150.432c-0.001-0.401-0.008-0.824-0.022-1.268
			c-0.006-0.191-0.017-0.4-0.025-0.598c-0.012-0.284-0.022-0.564-0.037-0.863c-0.015-0.283-0.034-0.585-0.052-0.881
			c-0.014-0.226-0.026-0.447-0.041-0.68c-0.027-0.413-0.058-0.843-0.089-1.277c-0.008-0.109-0.015-0.215-0.023-0.326
			c-0.188-2.545-0.436-5.417-0.649-8.494c-0.355-5.117-0.61-10.774-0.317-16.348c0.629-11.943-9.219-23.258-9.219-23.258
			c-10.024-2.995-17.951-0.857-23.41,2.405c-1.361,11.647-4.276,52.438,18.658,70.477c2.178,0.711,4.217,1.213,6.009,1.501
			c0.367,0.059,0.719,0.101,1.059,0.126c0.339,0.025,0.665,0.034,0.978,0.028c1.252-0.026,2.298-0.301,3.171-0.773
			c0.218-0.118,0.426-0.248,0.622-0.39c0.297-0.214,0.564-0.462,0.816-0.725c0.749-0.783,1.313-1.764,1.723-2.885
			c0.159-0.433,0.291-0.889,0.409-1.358c0.03-0.118,0.059-0.237,0.087-0.357c0.296-1.307,0.455-2.72,0.527-4.154
			c0.001-0.029,0.003-0.059,0.005-0.088c0.028-0.587,0.043-1.177,0.047-1.764c0-0.005,0-0.01,0-0.014
			c0.02-3.012-0.225-5.942-0.225-7.972C247.925,150.477,247.924,150.453,247.924,150.432z"/>
		<line style="fill:none;stroke:#56221C;stroke-miterlimit:10;" x1="253.216" y1="150.947" x2="258.625" y2="164.378"/>
		<g style="opacity:0.33;">
			<path style="fill:#312A2E;" d="M315.748,224.934c0,0-2.4-3.526-6.148-9.038c-26.133,28.796-47.469-21.932-54.846-42.992
				c4.622,14.423,11.555,36.939,22.681,73.821C312.225,249.369,315.748,224.934,315.748,224.934z"/>
			<polygon style="fill:#312A2E;" points="251.981,164.38 251.98,164.378 251.98,164.378 			"/>
		</g>
		<path style="fill:#EFEEE4;" d="M313.168,221.143c0,0,6.103,4.006,10.066,14.134c3.963,10.128,12.33,37.431-7.486,42.275
			c-19.816,4.844-36.55-4.844-38.752-15.853c-2.202-11.009-4.363-16.073-1.521-21.468
			C283.601,244.525,311.469,232.99,313.168,221.143z"/>
		<path style="fill:#D8D5C3;" d="M323.993,237.294c-0.264-0.728-0.52-1.406-0.76-2.017c-1.299-3.32-2.826-5.97-4.295-8.048
			c-0.043,0.076-9.789,17.381-24.738,22.742C280.125,255.019,308.131,255.658,323.993,237.294z"/>
		<path style="fill:#D8D5C3;" d="M313.269,256.705c-12.256,4.552-29.794,2.083-37.18,0.715c0.293,1.325,0.599,2.738,0.907,4.278
			c0.092,0.461,0.219,0.919,0.361,1.374C315.312,266.192,328.534,251.035,313.269,256.705z"/>
		<polygon style="fill:#924D3E;" points="177.913,248.048 213.13,246.926 213.49,256.799 177.913,258.875 		"/>
		<line style="fill:none;stroke:#56221C;stroke-miterlimit:10;" x1="177.913" y1="248.048" x2="213.13" y2="246.926"/>
	</g>
	<g>
		<rect x="60.934" y="316.532" style="fill:#D66562;" width="33.273" height="38.287"/>
		<rect x="60.934" y="316.532" style="fill:#BC5050;" width="12.396" height="38.287"/>
		<path style="fill:#BC5050;" d="M67.132,349.736h-5.098c-6.812,0-12.355-5.542-12.355-12.354v-0.191
			c0-6.813,5.543-12.355,12.355-12.355h5.098c1.6,0,2.897,1.297,2.897,2.897c0,1.601-1.297,2.897-2.897,2.897h-5.098
			c-3.617,0-6.56,2.943-6.56,6.561v0.191c0,3.617,2.943,6.56,6.56,6.56h5.098c1.6,0,2.897,1.297,2.897,2.897
			C70.03,348.439,68.732,349.736,67.132,349.736z"/>
		<path style="fill:#FFFFFF;" d="M76.743,310.915c0,0-7.917-9.855-1.392-22.281c6.525-12.425,2.03-20.98,0-26.601
			c9.947,14.664,9.702,20.286,6.28,28.596C78.21,298.939,76.255,303.148,76.743,310.915z"/>
	</g>
	<g>
		<path style="fill:#5B5256;" d="M429.439,287.444H311.096c-6.865,0-12.43-5.565-12.43-12.43V142.827
			c0-6.865,5.565-12.43,12.43-12.43h118.342c6.865,0,12.43,5.565,12.43,12.43v132.187
			C441.869,281.879,436.304,287.444,429.439,287.444z"/>
		<path style="fill:#312A2E;" d="M439.485,287.444H321.143c-6.865,0-12.43-5.565-12.43-12.43V142.827
			c0-6.865,5.565-12.43,12.43-12.43h118.342c6.865,0,12.43,5.565,12.43,12.43v132.187
			C451.915,281.879,446.35,287.444,439.485,287.444z"/>
		<polygon style="fill:#898486;" points="434.572,353.508 394.475,353.508 360.107,226.153 400.203,226.153 		"/>
		<polygon style="fill:#898486;" points="341.367,353.508 400.367,353.508 398.329,345.957 341.367,345.957 		"/>
		<rect x="325.329" y="267.57" style="fill:#2A1214;" width="16.039" height="6.857"/>
		<rect x="347.095" y="267.57" style="fill:#2A1214;" width="16.039" height="6.857"/>
		<circle style="fill:#2A1214;" cx="384.901" cy="184.543" r="12.397"/>
		<polygon style="fill:#5B5256;" points="440.463,353.508 400.367,353.508 365.998,226.153 406.095,226.153 		"/>
		<polygon style="fill:#242417;" points="370.268,287.444 360.107,226.153 376.647,287.444 		"/>
		<rect x="318.23" y="235.145" style="fill:#2A1214;" width="36.885" height="3.037"/>
		<rect x="318.23" y="239.795" style="fill:#2A1214;" width="36.885" height="3.037"/>
		<rect x="318.23" y="244.445" style="fill:#2A1214;" width="36.885" height="3.037"/>
		<rect x="318.23" y="249.095" style="fill:#2A1214;" width="36.885" height="3.037"/>
		<rect x="318.23" y="253.745" style="fill:#2A1214;" width="36.885" height="3.037"/>
		
			<line style="fill:none;stroke:#242417;stroke-width:1.1456;stroke-miterlimit:10;" x1="365.998" y1="226.153" x2="400.367" y2="353.508"/>
		<rect x="425.588" y="231.981" style="fill:none;stroke:#D8D5C3;stroke-miterlimit:10;" width="16.281" height="43.033"/>
	</g>
	<g>
		<path style="fill:#D3D1C5;" d="M469.907,371.564H53.602c-5.015,0-9.08-4.065-9.08-9.08l0,0c0-5.015,4.065-9.08,9.08-9.08h416.305
			c5.014,0,9.08,4.065,9.08,9.08l0,0C478.987,367.499,474.921,371.564,469.907,371.564z"/>
		<path style="fill:#D3D1C5;" d="M53.602,371.564h101.456c4.994,0,9.08-4.086,9.08-9.08l0,0c0-4.994-4.086-9.08-9.08-9.08H53.602
			c-4.994,0-9.08,4.086-9.08,9.08l0,0C44.522,367.478,48.608,371.564,53.602,371.564z"/>
	</g>
	<g>
		<path style="fill:#F9F3E9;" d="M126.259,123.749c0,0-56.568-5.399-76.892-44.162c21.523-42.376,21.523-42.376,21.523-42.376
			s37.474,38.053,76.734,34.199C129.614,117.025,126.259,123.749,126.259,123.749z"/>
		<path style="fill:#F9F3E9;" d="M285.229,57.985c0,0,19.886-27.309,45.871-25.974c15.167,23.84,15.167,23.84,15.167,23.84
			s-30.814,7.655-40.726,28.909C287.654,61.737,285.229,57.985,285.229,57.985z"/>
		<path style="fill:#F9F3E9;" d="M95.563,226.546c0,0-8.893-36.901-36.439-46.694c-25.999,18.221-25.999,18.221-25.999,18.221
			s28.691,21.201,29.836,47.527C91.432,229.398,95.563,226.546,95.563,226.546z"/>
	</g>
</g>
</svg>
